<?xml version="1.0" encoding="utf-8"?><svg fill="#228be6" width="24" height="24" viewBox="0 0 24 24" id="folder-code-2" data-name="Flat Color" xmlns="http://www.w3.org/2000/svg" class="icon flat-color"><path id="secondary" d="M6,2A2,2,0,0,0,4,4v7a1,1,0,0,0,1,1H19a1,1,0,0,0,1-1V4a2,2,0,0,0-2-2Z" style="fill: #15aabf;"></path><path id="primary" d="M20,10H11.4L9.7,8.29A1,1,0,0,0,9,8H4a2,2,0,0,0-2,2V20a2,2,0,0,0,2,2H20a2,2,0,0,0,2-2V12A2,2,0,0,0,20,10Z" style="fill: #868E96;"></path><path id="secondary-2" data-name="secondary" d="M11,20a1,1,0,0,1-.71-.29,1,1,0,0,1,0-1.42L11.59,17l-1.3-1.29a1,1,0,0,1,1.42-1.42l2,2a1,1,0,0,1,0,1.42l-2,2A1,1,0,0,1,11,20Zm-3.29-.29a1,1,0,0,0,0-1.42L6.41,17l1.3-1.29a1,1,0,0,0-1.42-1.42l-2,2a1,1,0,0,0,0,1.42l2,2a1,1,0,0,0,1.42,0Z" style="fill: white;"></path></svg>